<?xml version="1.0" encoding="UTF-8"?>
<!-- Generator: Adobe Illustrator 24.3.0, SVG Export Plug-In . SVG Version: 6.00 Build 0)  -->
<svg xmlns="http://www.w3.org/2000/svg" xmlns:xlink="http://www.w3.org/1999/xlink" version="1.1" id="Capa_1" x="0px" y="0px" viewBox="0 0 512 512" style="enable-background:new 0 0 512 512;" xml:space="preserve" width="512" height="512">
<g>
	<g id="object_62_">
		<g>
			<path d="M382.233,512H129.767C58.132,511.919,0.081,453.868,0,382.233V129.767C0.081,58.132,58.132,0.081,129.767,0h252.465     C453.868,0.081,511.919,58.132,512,129.767v252.465C511.919,453.868,453.868,511.919,382.233,512z M129.767,35.345     c-52.123,0.059-94.363,42.299-94.422,94.422v252.465c0.059,52.123,42.299,94.363,94.422,94.422h252.465     c52.123-0.059,94.363-42.299,94.422-94.422V129.767c-0.059-52.123-42.299-94.363-94.422-94.422H129.767z"/>
		</g>
		<g>
			<path d="M256,385.731c-71.648,0-129.731-58.082-129.731-129.731S184.352,126.269,256,126.269S385.731,184.352,385.731,256     c0,0,0,0,0,0C385.65,327.615,327.615,385.65,256,385.731z M256,161.615c-52.128,0-94.386,42.258-94.386,94.386     s42.258,94.386,94.386,94.386s94.386-42.258,94.386-94.386c0,0,0-0.001,0-0.001C350.327,203.897,308.103,161.673,256,161.615     L256,161.615z"/>
		</g>
		<g>
			<path d="M401.226,157.571c-25.845,0-46.796-20.951-46.796-46.796c0-25.845,20.951-46.796,46.796-46.796     c25.845,0,46.796,20.951,46.796,46.796c0,12.411-4.93,24.313-13.706,33.089l0,0C425.56,152.669,413.644,157.605,401.226,157.571z      M421.819,131.368L421.819,131.368z M401.226,99.324c-6.324,0-11.451,5.127-11.451,11.451c0,6.324,5.127,11.451,11.451,11.451     c6.324,0,11.451-5.127,11.451-11.451c0-3.037-1.207-5.95-3.355-8.098C407.18,100.523,404.264,99.316,401.226,99.324z"/>
		</g>
	</g>
</g>















</svg>
