<svg width="733" height="359" viewBox="0 0 733 359" fill="none" xmlns="http://www.w3.org/2000/svg">
<path d="M46.4341 126.117C51.2114 126.117 53.5044 123.441 53.5044 114.843V106.435C53.5044 99.3648 51.7847 98.2183 33.0581 92.4859C7.835 82.167 0 73.9502 0 50.4468V41.0835C0 9.5542 13.5674 0 45.8608 0C78.1542 0 91.7212 12.6118 91.7212 42.9941V53.6953H53.5044V45.4785C53.5044 35.542 50.6382 32.1025 45.2876 32.1025C40.5103 32.1025 38.2173 34.9687 38.2173 43.3764V49.4911C38.2173 56.5614 39.937 57.7079 57.8994 63.4403C83.1225 71.0839 91.7212 80.0648 91.7212 105.097V117.136C91.7212 144.843 77.9634 157.646 45.8608 157.646C15.0962 157.646 0 146.754 0 115.798V102.613H38.2173V112.741C38.2173 123.059 41.0835 126.117 46.4341 126.117Z" fill="#faf7f0"/>
<path d="M162.038 39.1729V156.691H123.821V39.1729H104.712V0.9556H181.146V39.1729H162.038Z" fill="#faf7f0"/>
<path d="M289.105 0.9556V103.378C289.105 145.417 278.786 157.646 243.244 157.646C207.702 157.646 197.384 145.417 197.384 103.378V0.9556H235.601V107.39C235.601 120.193 237.894 123.059 243.244 123.059C248.594 123.059 250.888 120.193 250.888 107.39V0.9556H289.105Z" fill="#faf7f0"/>
<path d="M306.297 0.9556H352.157C387.699 0.9556 398.018 12.9937 398.018 53.8863V103.76C398.018 144.843 387.699 156.691 352.157 156.691H306.297V0.9556ZM344.514 34.5864V123.059H352.157C357.508 123.059 359.801 119.238 359.801 101.467V56.1792C359.801 38.0264 357.508 34.5864 352.157 34.5864H344.514Z" fill="#faf7f0"/>
<path d="M414.256 0.9556H452.474V156.691H414.256V0.9556Z" fill="#faf7f0"/>
<path d="M514.573 157.646C482.279 157.646 468.712 143.888 468.712 108.919V48.5356C468.712 13.7583 482.279 0 514.573 0C546.866 0 560.433 13.7583 560.433 48.5356V108.919C560.433 143.888 546.866 157.646 514.573 157.646ZM514.573 34.2046C509.222 34.2046 506.929 37.4526 506.929 51.9756V105.67C506.929 120.384 509.222 123.441 514.573 123.441C519.923 123.441 522.216 120.384 522.216 105.67V51.9756C522.216 37.4527 519.923 34.2046 514.573 34.2046Z" fill="#faf7f0"/>
<path d="M1.3379 201.997H39.5552V322.19H77.772V357.732H1.3379V201.997Z" fill="#faf7f0"/>
<path d="M94.0107 201.997H132.228V357.732H94.0107V201.997Z" fill="#faf7f0"/>
<path d="M190.887 323.336L197.958 201.997H235.028L222.417 357.732H159.358L146.747 201.997H183.435L190.887 323.336Z" fill="#faf7f0"/>
<path d="M325.789 357.732H249.355V201.997H325.789V237.539H287.572V260.852H323.114V293.718H287.572V322.19H325.789V357.732Z" fill="#faf7f0"/>
<path d="M376.994 291.234V357.732H342.599V201.997H378.141L399.924 268.113V201.997H434.32V357.732H398.778L376.994 291.234Z" fill="#faf7f0"/>
<path d="M496.417 358.687C464.123 358.687 450.556 344.929 450.556 309.96V249.577C450.556 214.8 464.124 201.042 496.417 201.042C528.71 201.042 542.277 214.8 542.277 249.577V309.96C542.277 344.929 528.71 358.687 496.417 358.687ZM496.417 235.246C491.066 235.246 488.773 238.495 488.773 253.017V306.712C488.773 321.426 491.066 324.483 496.417 324.483C501.768 324.483 504.06 321.426 504.06 306.712V253.017C504.06 238.495 501.767 235.246 496.417 235.246Z" fill="#faf7f0"/>
<path d="M553.93 201.997H591L595.777 302.89L607.434 201.997H638.39L650.237 302.89L654.823 201.997H692.276L679.282 357.732H632.657L623.294 266.584L613.548 357.732H567.306L553.93 201.997Z" fill="#faf7f0"/>
<path d="M715.687 358.686C724.934 358.686 732.43 351.19 732.43 341.944C732.43 332.697 724.934 325.201 715.687 325.201C706.441 325.201 698.945 332.697 698.945 341.944C698.945 351.19 706.441 358.686 715.687 358.686Z" fill="#faf7f0"/>
</svg>
