<?xml version="1.0" encoding="UTF-8"?><svg id="uuid-51571839-b8c0-4099-b3b0-367915fb00db" xmlns="http://www.w3.org/2000/svg" viewBox="0 0 1355.4986 157.646"><g id="uuid-175e99f4-bf2e-4525-b6c3-9ae9de111ffc"><path d="M46.4341,126.1167c4.7773,0,7.0703-2.6753,7.0703-11.2739v-8.4077c0-7.0703-1.7197-8.2168-20.4463-13.9492C7.835,82.167,0,73.9502,0,50.4468v-9.3633C0,9.5542,13.5674,0,45.8608,0s45.8604,12.6118,45.8604,42.9941v10.7012h-38.2168v-8.2168c0-9.9365-2.8662-13.376-8.2168-13.376-4.7773,0-7.0703,2.8662-7.0703,11.2739v6.1147c0,7.0703,1.7197,8.2168,19.6821,13.9492,25.2231,7.6436,33.8218,16.6245,33.8218,41.6567v12.0386c0,27.7075-13.7578,40.5103-45.8604,40.5103-30.7646,0-45.8608-10.8921-45.8608-41.8481v-13.1846h38.2173v10.1274c0,10.3184,2.8662,13.376,8.2168,13.376Z" fill="#fff"/><path d="M162.0376,39.1729v117.5176h-38.2168V39.1729h-19.1089V.9556h76.4346v38.2173h-19.1089Z" fill="#fff"/><path d="M289.105.9556v102.4219c0,42.0391-10.3188,54.2686-45.8608,54.2686s-45.8604-12.2295-45.8604-54.2686V.9556h38.2173v106.4346c0,12.8027,2.293,15.6689,7.6431,15.6689s7.6436-2.8662,7.6436-15.6689V.9556h38.2173Z" fill="#fff"/><path d="M306.2969.9556h45.8604c35.542,0,45.8608,12.0381,45.8608,52.9307v49.8735c0,41.0835-10.3188,52.9307-45.8608,52.9307h-45.8604V.9556ZM344.5142,34.5864v88.4727h7.6431c5.3506,0,7.6436-3.8213,7.6436-21.5923v-45.2876c0-18.1528-2.293-21.5928-7.6436-21.5928h-7.6431Z" fill="#fff"/><path d="M414.2563.9556h38.2173v155.7349h-38.2173V.9556Z" fill="#fff"/><path d="M514.5728,157.646c-32.2935,0-45.8608-13.7583-45.8608-48.7271v-60.3833c0-34.7773,13.5674-48.5356,45.8608-48.5356s45.8604,13.7583,45.8604,48.5356v60.3833c0,34.9688-13.5669,48.7271-45.8604,48.7271ZM514.5728,34.2046c-5.3506,0-7.6436,3.248-7.6436,17.771v53.6948c0,14.7139,2.293,17.771,7.6436,17.771s7.6431-3.0571,7.6431-17.771v-53.6948c0-14.5229-2.293-17.771-7.6431-17.771Z" fill="#fff"/><path d="M624.4067.9558h38.2173v120.1929h38.2168v35.542h-76.4341V.9558Z" fill="#fff"/><path d="M717.0795.9558h38.2173v155.7349h-38.2173V.9558Z" fill="#fff"/><path d="M813.956,122.2952l7.0703-121.3394h37.0708l-12.6118,155.7349h-63.0581L769.8154.9558h36.6885l7.4521,121.3394Z" fill="#fff"/><path d="M948.8574,156.6907h-76.4341V.9558h76.4341v35.542h-38.2168v23.3125h35.542v32.8667h-35.542v28.4717h38.2168v35.542Z" fill="#fff"/><path d="M1000.0629,90.1926v66.498h-34.3955V.9558h35.542l21.7837,66.1157V.9558h34.3955v155.7349h-35.542l-21.7837-66.498Z" fill="#fff"/><path d="M1119.4858,157.6458c-32.2935,0-45.8608-13.7578-45.8608-48.7266v-60.3833C1073.625,13.7585,1087.1923.0002,1119.4858.0002s45.8604,13.7583,45.8604,48.5356v60.3833c0,34.9688-13.5669,48.7266-45.8604,48.7266ZM1119.4858,34.2048c-5.3506,0-7.6436,3.2485-7.6436,17.771v53.6948c0,14.7139,2.293,17.771,7.6436,17.771s7.6431-3.0571,7.6431-17.771v-53.6948c0-14.5225-2.293-17.771-7.6431-17.771Z" fill="#fff"/><path d="M1176.9985.9558h37.0708l4.7769,100.8931,11.6562-100.8931h30.9561l11.8472,100.8931,4.5864-100.8931h37.4526l-12.9937,155.7349h-46.625l-9.3633-91.1479-9.7456,91.1479h-46.2427L1176.9985.9558Z" fill="#fff"/><circle cx="1338.756" cy="140.9021" r="16.7426" fill="#fff"/></g></svg>